Coordinates
version=1
nRows=8
nColumns=55
inDegrees=yes

Units are S.I. units (second, meters, Newtons, ...)
If the header above contains a line with 'inDegrees', this indicates whether rotational values are in degrees (yes) or radians (no).

endheader
time	pelvis_tilt	pelvis_list	pelvis_rotation	pelvis_tx	pelvis_ty	pelvis_tz	hip_flexion_r	hip_adduction_r	hip_rotation_r	hip_flexion_l	hip_adduction_l	hip_rotation_l	flex_extension	lat_bending	axial_rotation	L4_L5_IVDjnt_r3	L4_L5_IVD_bendjnt_r1	L4_L5_IVD_rotjnt_r2	L3_L4_IVDjnt_r3	L3_L4_IVD_bendjnt_r1	L3_L4_IVD_rotjnt_r2	L2_L3_IVDjnt_r3	L2_L3_IVD_bendjnt_r1	L2_L3_IVD_rotjnt_r2	L1_L2_IVDjnt_r3	L1_L2_IVD_bendjnt_r1	L1_L2_IVD_rotjnt_r2	Torso_Rot	Abs_r3	Abs_t1	Abs_t2	LB_wrapjnt_r3	LB_wrapjnt_t1	LB_wrapjnt_t2	SC_y	SC_x	SC_z	SC_y_l	SC_x_l	SC_z_l	arm_flex_r	arm_add_r	arm_rot_r	elbow_flex_r	pro_sup_r	wrist_flex_r	wrist_dev_r	arm_flex_l	arm_add_l	arm_rot_l	elbow_flex_l	pro_sup_l	wrist_flex_l	wrist_dev_l
      2.73300000	     20.50840000	     -7.34530000	    -73.44469997	      0.15670000	      0.69810000	     -0.42940000	     41.12820000	     -8.69510000	      0.19240000	     45.41220000	    -19.47210000	     27.51710000	     -0.00000000	      0.00000000	      0.00000000	     -0.00000000	      0.00000000	      0.00000000	     -0.00000000	      0.00000000	      0.00000000	     -0.00000000	      0.00000000	      0.00000000	     -0.00000000	      0.00000000	      0.00000000	      0.00000000	     -0.00000001	      0.00000000	      0.00000000	     -0.00000001	     -0.00000000	     -0.00000000	      0.00000000	     -0.00000004	      0.00088355	      0.00000000	     -0.00000004	     -0.00088355	     -5.40470000	    -32.59980000	    -18.05240000	     71.97500000	     89.99945434	    -32.76409999	     13.84419999	     37.52060000	    -17.70880000	      3.74860000	    101.23619999	     25.93480001	    -15.63740000	    -24.99945382
      2.74900000	     20.51970000	     -7.37250000	    -73.42329997	      0.15660000	      0.69830000	     -0.42950000	     41.08670000	     -8.69760000	      0.21510000	     45.46170000	    -19.46410000	     27.55620000	     -0.00000000	      0.00000000	      0.00000000	     -0.00000000	      0.00000000	      0.00000000	     -0.00000000	      0.00000000	      0.00000000	     -0.00000000	      0.00000000	      0.00000000	     -0.00000000	      0.00000000	      0.00000000	      0.00000000	     -0.00000001	      0.00000000	      0.00000000	     -0.00000001	     -0.00000000	     -0.00000000	      0.00000000	     -0.00000004	      0.00088355	      0.00000000	     -0.00000004	     -0.00088355	     -5.38620000	    -32.61320000	    -18.02910000	     71.95340000	     89.99945434	    -32.70519999	     13.90119999	     36.83480000	    -17.63980000	      3.52510000	     99.53049999	     25.79520001	    -16.19730000	    -24.99945382
      2.76600000	     20.52170000	     -7.39270000	    -73.41889997	      0.15660000	      0.69850000	     -0.42960000	     41.05750000	     -8.68920000	      0.26140000	     45.51560000	    -19.46690000	     27.56090000	     -0.00000000	      0.00000000	      0.00000000	     -0.00000000	      0.00000000	      0.00000000	     -0.00000000	      0.00000000	      0.00000000	     -0.00000000	      0.00000000	      0.00000000	     -0.00000000	      0.00000000	      0.00000000	      0.00000000	     -0.00000001	      0.00000000	      0.00000000	     -0.00000001	     -0.00000000	     -0.00000000	      0.00000000	     -0.00000004	      0.00088355	      0.00000000	     -0.00000004	     -0.00088355	     -5.36410000	    -32.63670000	    -18.01650000	     71.95010000	     89.99945434	    -32.62189999	     13.94569999	     36.10870000	    -17.55580000	      3.29060000	     97.76219999	     25.56350001	    -16.63960000	    -24.99945382
      2.78300000	     20.51680000	     -7.40820000	    -73.42019997	      0.15660000	      0.69860000	     -0.42960000	     41.03460000	     -8.67700000	      0.31260000	     45.57300000	    -19.47130000	     27.54380000	     -0.00000000	      0.00000000	      0.00000000	     -0.00000000	      0.00000000	      0.00000000	     -0.00000000	      0.00000000	      0.00000000	     -0.00000000	      0.00000000	      0.00000000	     -0.00000000	      0.00000000	      0.00000000	      0.00000000	     -0.00000001	      0.00000000	      0.00000000	     -0.00000001	     -0.00000000	     -0.00000000	      0.00000000	     -0.00000004	      0.00088355	      0.00000000	     -0.00000004	     -0.00088355	     -5.33670000	    -32.66690000	    -18.00790000	     71.95750000	     89.99945434	    -32.52239999	     13.98689999	     35.36940000	    -17.46140000	      3.04930000	     95.91879999	     25.24940001	    -16.97990000	    -24.99945382
      2.79900000	     20.51230000	     -7.41990000	    -73.41059997	      0.15670000	      0.69880000	     -0.42960000	     41.00880000	     -8.67520000	      0.34790000	     45.62560000	    -19.45930000	     27.51900000	     -0.00000000	      0.00000000	      0.00000000	     -0.00000000	      0.00000000	      0.00000000	     -0.00000000	      0.00000000	      0.00000000	     -0.00000000	      0.00000000	      0.00000000	     -0.00000000	      0.00000000	      0.00000000	      0.00000000	     -0.00000001	      0.00000000	      0.00000000	     -0.00000001	     -0.00000000	     -0.00000000	      0.00000000	     -0.00000005	      0.00088354	      0.00000000	     -0.00000005	     -0.00088354	     -5.30850000	    -32.70020000	    -18.00950000	     71.97400000	     89.99945434	    -32.41139999	     14.02609999	     34.66660000	    -17.36560000	      2.80610000	     93.95469999	     24.80700001	    -17.19700000	    -24.99945382
      2.81600000	     20.51180000	     -7.42650000	    -73.38279997	      0.15680000	      0.69900000	     -0.42960000	     40.97530000	     -8.68970000	      0.35890000	     45.66990000	    -19.42170000	     27.48290000	     -0.00000000	      0.00000000	      0.00000000	     -0.00000000	      0.00000000	      0.00000000	     -0.00000000	      0.00000000	      0.00000000	     -0.00000000	      0.00000000	      0.00000000	     -0.00000000	      0.00000000	      0.00000000	      0.00000000	     -0.00000001	      0.00000000	      0.00000000	     -0.00000001	     -0.00000000	     -0.00000000	      0.00000000	     -0.00000005	      0.00088353	      0.00000000	     -0.00000005	     -0.00088353	     -5.28290000	    -32.73640000	    -18.03920000	     71.99740000	     89.99945434	    -32.28999999	     14.05869999	     34.02940000	    -17.26990000	      2.55190000	     91.84699999	     24.16000002	    -17.20280000	    -24.99945382
      2.83300000	     20.51160000	     -7.42930000	    -73.34429997	      0.15700000	      0.69920000	     -0.42960000	     40.93910000	     -8.71440000	      0.35400000	     45.70949999	    -19.36770000	     27.43910000	     -0.00000000	      0.00000000	      0.00000000	     -0.00000000	      0.00000000	      0.00000000	     -0.00000000	      0.00000000	      0.00000000	     -0.00000000	      0.00000000	      0.00000000	     -0.00000000	      0.00000000	      0.00000000	      0.00000000	     -0.00000001	      0.00000000	      0.00000000	     -0.00000001	     -0.00000000	     -0.00000000	      0.00000000	     -0.00000005	      0.00088353	      0.00000000	     -0.00000005	     -0.00088353	     -5.25660000	    -32.77560000	    -18.07910000	     72.03010000	     89.99945434	    -32.15709999	     14.08929999	     33.42860000	    -17.17240000	      2.29680000	     89.61389999	     23.38760002	    -17.09289999	    -24.99945382
      2.84900000	     20.50740000	     -7.43270000	    -73.29959996	      0.15720000	      0.69940000	     -0.42950000	     40.90510000	     -8.74560000	      0.33670000	     45.74589999	    -19.30750000	     27.41270000	     -0.00000000	      0.00000000	      0.00000000	     -0.00000000	      0.00000000	      0.00000000	     -0.00000000	      0.00000000	      0.00000000	     -0.00000000	      0.00000000	      0.00000000	     -0.00000000	      0.00000000	      0.00000000	      0.00000000	     -0.00000001	      0.00000000	      0.00000000	     -0.00000001	     -0.00000000	     -0.00000000	      0.00000000	     -0.00000005	      0.00088352	      0.00000000	     -0.00000005	     -0.00088352	     -5.22450000	    -32.81510000	    -18.08270000	     72.07740000	     89.99945433	    -32.01479999	     14.13359999	     32.82570000	    -17.07870000	      2.07300000	     87.27379999	     22.67600002	    -17.11569999	    -24.99945382
